<svg xmlns="http://www.w3.org/2000/svg" viewBox="0 0 1776 2292">
	<style>
		tspan { white-space:pre }
		.shp0 { fill: #e6a329 } 
		.shp1 { fill: #f1bf22 } 
		.shp2 { fill: #ffffff } 
		.shp3 { fill: #ebebeb } 
	</style>
	<path id="Layer" class="shp0" d="M1776 140.9L0 140.9L166.5 1946.4L887.9 2151L1609.3 1946.4L1776 140.9Z" />
	<path id="Layer" class="shp1" d="M887.9 288L887.9 1998L1472.4 1832.4L1614.6 288L887.9 288Z" />
	<path id="Layer" class="shp2" d="M1352.9 509.5L454.2 509.5L391.6 1185.5L392.9 1181.3L1156.4 1181.3L1131.5 1467.3L887.9 1537.4L640.7 1466.2L625.9 1293.1L401.5 1293.1L433.5 1639L887.9 1768L1342.5 1639L1405.1 960.1L594.8 960.1L605.2 733.9L1167.4 733.9L1175.8 863.5L1402.2 863.5L1352.9 509.5Z" />
	<path id="Layer" class="shp3" d="M888.1 509.5L454.2 509.5L391.6 1185.5L392.9 1181.3L888.1 1181.3L888.1 960.8L626.4 960.8L636.8 734.6L888.1 734.6L888.1 509.5ZM626.4 1293.1L401.5 1293.1L433.5 1638.8L887.9 1767.6L887.9 1537.6L640.7 1466.2L626.4 1293.1Z" />
</svg>